<mxfile host="Electron" agent="Mozilla/5.0 (Windows NT 10.0; Win64; x64) AppleWebKit/537.36 (KHTML, like Gecko) draw.io/24.7.17 Chrome/128.0.6613.36 Electron/32.0.1 Safari/537.36" version="24.7.17">
  <diagram name="Page-1" id="5svgy6p3EdvYPWI4Bjpe">
    <mxGraphModel dx="1102" dy="570" grid="1" gridSize="10" guides="1" tooltips="1" connect="1" arrows="1" fold="1" page="1" pageScale="1" pageWidth="850" pageHeight="1100" math="0" shadow="0">
      <root>
        <mxCell id="0" />
        <mxCell id="1" parent="0" />
        <mxCell id="cV9FxsVroMuKgu77WN1R-1" value="ReplyTicket" style="rounded=1;arcSize=10;whiteSpace=wrap;html=1;align=center;" parent="1" vertex="1">
          <mxGeometry x="370" y="350" width="100" height="40" as="geometry" />
        </mxCell>
        <mxCell id="cV9FxsVroMuKgu77WN1R-2" value="Content" style="ellipse;whiteSpace=wrap;html=1;align=center;" parent="1" vertex="1">
          <mxGeometry x="260" y="280" width="100" height="40" as="geometry" />
        </mxCell>
        <mxCell id="cV9FxsVroMuKgu77WN1R-3" value="Replier" style="ellipse;whiteSpace=wrap;html=1;align=center;" parent="1" vertex="1">
          <mxGeometry x="370" y="280" width="100" height="40" as="geometry" />
        </mxCell>
        <mxCell id="cV9FxsVroMuKgu77WN1R-4" value="" style="endArrow=none;html=1;rounded=0;" parent="1" source="cV9FxsVroMuKgu77WN1R-2" target="cV9FxsVroMuKgu77WN1R-1" edge="1">
          <mxGeometry relative="1" as="geometry">
            <mxPoint x="330" y="420" as="sourcePoint" />
            <mxPoint x="490" y="420" as="targetPoint" />
          </mxGeometry>
        </mxCell>
        <mxCell id="cV9FxsVroMuKgu77WN1R-5" value="" style="endArrow=none;html=1;rounded=0;" parent="1" source="cV9FxsVroMuKgu77WN1R-3" target="cV9FxsVroMuKgu77WN1R-1" edge="1">
          <mxGeometry relative="1" as="geometry">
            <mxPoint x="321" y="326" as="sourcePoint" />
            <mxPoint x="390" y="360" as="targetPoint" />
          </mxGeometry>
        </mxCell>
        <mxCell id="DGKL7QkOAjUB03lZkWwN-1" value="Ticket" style="ellipse;whiteSpace=wrap;html=1;align=center;" vertex="1" parent="1">
          <mxGeometry x="480" y="280" width="100" height="40" as="geometry" />
        </mxCell>
        <mxCell id="DGKL7QkOAjUB03lZkWwN-2" value="" style="endArrow=none;html=1;rounded=0;" edge="1" parent="1" source="cV9FxsVroMuKgu77WN1R-1" target="DGKL7QkOAjUB03lZkWwN-1">
          <mxGeometry width="50" height="50" relative="1" as="geometry">
            <mxPoint x="500" y="400" as="sourcePoint" />
            <mxPoint x="560" y="360" as="targetPoint" />
          </mxGeometry>
        </mxCell>
      </root>
    </mxGraphModel>
  </diagram>
</mxfile>
